<?xml version="1.0" encoding="UTF-8" standalone="no"?>
<!-- Created with Inkscape (http://www.inkscape.org/) -->

<svg
   width="1273.1964"
   height="813.50732"
   viewBox="0 0 336.86655 215.24047"
   version="1.1"
   id="svg5"
   inkscape:version="1.3.2 (091e20e, 2023-11-25)"
   sodipodi:docname="safiria.svg"
   xml:space="preserve"
   inkscape:export-filename="SFR_c.png"
   inkscape:export-xdpi="96"
   inkscape:export-ydpi="96"
   xmlns:inkscape="http://www.inkscape.org/namespaces/inkscape"
   xmlns:sodipodi="http://sodipodi.sourceforge.net/DTD/sodipodi-0.dtd"
   xmlns:xlink="http://www.w3.org/1999/xlink"
   xmlns="http://www.w3.org/2000/svg"
   xmlns:svg="http://www.w3.org/2000/svg"><sodipodi:namedview
     id="namedview7"
     pagecolor="#505050"
     bordercolor="#eeeeee"
     borderopacity="1"
     inkscape:pageshadow="0"
     inkscape:pageopacity="0"
     inkscape:pagecheckerboard="0"
     inkscape:document-units="px"
     showgrid="true"
     units="px"
     inkscape:snap-global="true"
     inkscape:snap-bbox="false"
     inkscape:bbox-paths="true"
     inkscape:bbox-nodes="true"
     inkscape:snap-bbox-edge-midpoints="true"
     inkscape:snap-bbox-midpoints="true"
     inkscape:object-paths="true"
     inkscape:snap-intersection-paths="true"
     inkscape:snap-smooth-nodes="true"
     inkscape:snap-midpoints="true"
     inkscape:snap-object-midpoints="true"
     inkscape:snap-others="false"
     inkscape:snap-grids="false"
     inkscape:zoom="1.4947622"
     inkscape:cx="636.5561"
     inkscape:cy="406.75366"
     inkscape:window-width="2528"
     inkscape:window-height="1387"
     inkscape:window-x="46"
     inkscape:window-y="25"
     inkscape:window-maximized="0"
     inkscape:current-layer="layer1"
     inkscape:showpageshadow="0"
     inkscape:deskcolor="#505050" /><defs
     id="defs2"><linearGradient
       id="linearGradient45"
       inkscape:collect="always"><stop
         style="stop-color:#622d76;stop-opacity:1;"
         offset="0"
         id="stop43" /><stop
         style="stop-color:#bf99c3;stop-opacity:1;"
         offset="0.49638554"
         id="stop44" /><stop
         style="stop-color:#622d76;stop-opacity:1;"
         offset="1"
         id="stop45" /></linearGradient><linearGradient
       id="linearGradient40"
       inkscape:collect="always"><stop
         style="stop-color:#bb2c26;stop-opacity:1;"
         offset="0"
         id="stop38" /><stop
         style="stop-color:#f7971d;stop-opacity:1;"
         offset="0.49638554"
         id="stop39" /><stop
         style="stop-color:#bb2c26;stop-opacity:1;"
         offset="1"
         id="stop40" /></linearGradient><linearGradient
       id="linearGradient35"
       inkscape:collect="always"><stop
         style="stop-color:#8d742f;stop-opacity:1;"
         offset="0"
         id="stop33" /><stop
         style="stop-color:#d7bd74;stop-opacity:1;"
         offset="0.49638554"
         id="stop34" /><stop
         style="stop-color:#8d742f;stop-opacity:1;"
         offset="1"
         id="stop35" /></linearGradient><linearGradient
       id="linearGradient23"
       inkscape:collect="always"><stop
         style="stop-color:#626e77;stop-opacity:1;"
         offset="0"
         id="stop22" /><stop
         style="stop-color:#b7d1e1;stop-opacity:1;"
         offset="0.49638554"
         id="stop24" /><stop
         style="stop-color:#626e77;stop-opacity:1;"
         offset="1"
         id="stop23" /></linearGradient><linearGradient
       inkscape:collect="always"
       xlink:href="#linearGradient45"
       id="linearGradient56"
       gradientUnits="userSpaceOnUse"
       x1="3.6557851"
       y1="53.062809"
       x2="230.36443"
       y2="114.3955"
       gradientTransform="translate(396.91427,414.6062)" /><linearGradient
       inkscape:collect="always"
       xlink:href="#linearGradient45"
       id="linearGradient57"
       gradientUnits="userSpaceOnUse"
       x1="3.6557851"
       y1="53.062809"
       x2="230.36443"
       y2="114.3955"
       gradientTransform="translate(396.91427,414.6062)" /><linearGradient
       inkscape:collect="always"
       xlink:href="#linearGradient45"
       id="linearGradient58"
       gradientUnits="userSpaceOnUse"
       x1="3.6557851"
       y1="53.062809"
       x2="230.36443"
       y2="114.3955"
       gradientTransform="translate(396.91427,414.6062)" /><linearGradient
       inkscape:collect="always"
       xlink:href="#linearGradient40"
       id="linearGradient59"
       gradientUnits="userSpaceOnUse"
       x1="3.6557851"
       y1="53.062809"
       x2="230.36443"
       y2="114.3955"
       gradientTransform="translate(396.90445,207.3031)" /><linearGradient
       inkscape:collect="always"
       xlink:href="#linearGradient40"
       id="linearGradient60"
       gradientUnits="userSpaceOnUse"
       x1="3.6557851"
       y1="53.062809"
       x2="230.36443"
       y2="114.3955"
       gradientTransform="translate(396.90445,207.3031)" /><linearGradient
       inkscape:collect="always"
       xlink:href="#linearGradient40"
       id="linearGradient61"
       gradientUnits="userSpaceOnUse"
       x1="3.6557851"
       y1="53.062809"
       x2="230.36443"
       y2="114.3955"
       gradientTransform="translate(396.90445,207.3031)" /><linearGradient
       inkscape:collect="always"
       xlink:href="#linearGradient35"
       id="linearGradient62"
       gradientUnits="userSpaceOnUse"
       x1="3.6557851"
       y1="53.062809"
       x2="230.36443"
       y2="114.3955"
       gradientTransform="translate(396.89463)" /><linearGradient
       inkscape:collect="always"
       xlink:href="#linearGradient35"
       id="linearGradient63"
       gradientUnits="userSpaceOnUse"
       x1="3.6557851"
       y1="53.062809"
       x2="230.36443"
       y2="114.3955"
       gradientTransform="translate(396.89463)" /><linearGradient
       inkscape:collect="always"
       xlink:href="#linearGradient35"
       id="linearGradient64"
       gradientUnits="userSpaceOnUse"
       x1="3.6557851"
       y1="53.062809"
       x2="230.36443"
       y2="114.3955"
       gradientTransform="translate(396.89463)" /><linearGradient
       inkscape:collect="always"
       xlink:href="#linearGradient23"
       id="linearGradient65"
       gradientUnits="userSpaceOnUse"
       x1="3.6557851"
       y1="53.062809"
       x2="230.36443"
       y2="114.3955"
       gradientTransform="translate(396.88481,-207.3031)" /><linearGradient
       inkscape:collect="always"
       xlink:href="#linearGradient23"
       id="linearGradient66"
       gradientUnits="userSpaceOnUse"
       x1="3.6557851"
       y1="53.062809"
       x2="230.36443"
       y2="114.3955"
       gradientTransform="translate(396.88481,-207.3031)" /><linearGradient
       inkscape:collect="always"
       xlink:href="#linearGradient23"
       id="linearGradient67"
       gradientUnits="userSpaceOnUse"
       x1="3.6557851"
       y1="53.062809"
       x2="230.36443"
       y2="114.3955"
       gradientTransform="translate(396.88481,-207.3031)" /></defs><g
     inkscape:label="Layer 1"
     inkscape:groupmode="layer"
     id="layer1"
     transform="translate(51.422649,23.889024)"><path
       id="path728"
       style="fill:#000000;stroke:#ffffff;stroke-width:7.9375;stroke-linecap:round;stroke-linejoin:round;stroke-miterlimit:4;stroke-dasharray:none;stroke-opacity:1"
       d="M 61.71839,-19.920333 C 33.122868,-4.6464222 12.110462,21.76561 3.655785,53.062809 L -47.454273,83.728637 3.6563018,114.39498 C 12.112014,145.6956 33.128151,172.10977 61.728209,187.38277 L 117.01011,154.21374 C 78.082439,154.21351 46.525463,122.65631 46.525519,83.728637 46.526033,44.80581 78.075913,13.251073 116.99874,13.244568 Z"
       sodipodi:nodetypes="ccccccccc" /><path
       id="path1724"
       style="fill:#000000;stroke:#ffffff;stroke-width:7.9375;stroke-linecap:round;stroke-linejoin:round;stroke-miterlimit:4;stroke-dasharray:none;stroke-opacity:1"
       d="m 172.30234,-19.920333 -55.27983,33.164384 c 38.92303,0.0065 70.47299,31.561557 70.47322,70.484586 6e-5,38.927873 -31.55724,70.485163 -70.48511,70.485103 l 55.2819,33.16903 c 28.59995,-15.27288 49.61607,-41.68685 58.07191,-72.98727 L 281.47552,83.728637 230.41042,53.08968 C 221.95171,21.774213 200.92093,-4.6499481 172.30234,-19.920333 Z"
       sodipodi:nodetypes="ccccccccc" /><circle
       style="fill:#000000;stroke:#ffffff;stroke-width:7.9375;stroke-linecap:round;stroke-linejoin:round;stroke-miterlimit:4;stroke-dasharray:none"
       id="path1748"
       cx="117.01062"
       cy="83.728638"
       r="46.990002" /><path
       id="path55"
       style="fill:url(#linearGradient58);stroke:#000000;stroke-width:7.9375;stroke-linecap:round;stroke-linejoin:round;stroke-miterlimit:4;stroke-dasharray:none;stroke-opacity:1"
       d="m 458.63266,394.68587 c -28.59552,15.27391 -49.60792,41.68594 -58.0626,72.98314 l -51.11006,30.66583 51.11058,30.66634 c 8.45571,31.30062 29.47185,57.71479 58.0719,72.98779 l 55.2819,-33.16903 c -38.92767,-2.3e-4 -70.48464,-31.55743 -70.48459,-70.4851 5.2e-4,-38.92283 31.5504,-70.47757 70.47322,-70.48407 z"
       sodipodi:nodetypes="ccccccccc" /><path
       id="path56"
       style="fill:url(#linearGradient57);stroke:#000000;stroke-width:7.9375;stroke-linecap:round;stroke-linejoin:round;stroke-miterlimit:4;stroke-dasharray:none;stroke-opacity:1"
       d="m 569.21661,394.68587 -55.27983,33.16438 c 38.92303,0.006 70.47299,31.56156 70.47322,70.48459 6e-5,38.92787 -31.55724,70.48516 -70.48511,70.4851 l 55.2819,33.16903 c 28.59995,-15.27288 49.61607,-41.68685 58.07191,-72.98727 l 51.11109,-30.66686 -51.0651,-30.63896 c -8.45871,-31.31547 -29.48949,-57.73963 -58.10808,-73.01001 z"
       sodipodi:nodetypes="ccccccccc" /><circle
       style="fill:url(#linearGradient56);stroke:#000000;stroke-width:7.9375;stroke-linecap:round;stroke-linejoin:round;stroke-miterlimit:4;stroke-dasharray:none"
       id="circle56"
       cx="513.92493"
       cy="498.33484"
       r="46.990002" /><path
       id="path58"
       style="fill:url(#linearGradient61);stroke:#000000;stroke-width:7.9375;stroke-linecap:round;stroke-linejoin:round;stroke-miterlimit:4;stroke-dasharray:none;stroke-opacity:1"
       d="m 458.62284,187.38277 c -28.59552,15.27391 -49.60793,41.68594 -58.0626,72.98314 l -51.11006,30.66583 51.11057,30.66634 c 8.45572,31.30062 29.47185,57.71479 58.07191,72.98779 l 55.2819,-33.16903 c -38.92767,-2.3e-4 -70.48465,-31.55743 -70.48459,-70.4851 5.1e-4,-38.92283 31.55039,-70.47757 70.47322,-70.48407 z"
       sodipodi:nodetypes="ccccccccc" /><path
       id="path59"
       style="fill:url(#linearGradient60);stroke:#000000;stroke-width:7.9375;stroke-linecap:round;stroke-linejoin:round;stroke-miterlimit:4;stroke-dasharray:none;stroke-opacity:1"
       d="m 569.20679,187.38277 -55.27983,33.16438 c 38.92303,0.007 70.47299,31.56156 70.47322,70.48459 6e-5,38.92787 -31.55724,70.48516 -70.48511,70.4851 l 55.2819,33.16903 c 28.59995,-15.27288 49.61607,-41.68685 58.07191,-72.98727 l 51.11109,-30.66686 -51.0651,-30.63896 c -8.45871,-31.31547 -29.48949,-57.73963 -58.10808,-73.01001 z"
       sodipodi:nodetypes="ccccccccc" /><circle
       style="fill:url(#linearGradient59);stroke:#000000;stroke-width:7.9375;stroke-linecap:round;stroke-linejoin:round;stroke-miterlimit:4;stroke-dasharray:none"
       id="circle59"
       cx="513.9151"
       cy="291.03174"
       r="46.990002" /><path
       id="path61"
       style="fill:url(#linearGradient64);stroke:#000000;stroke-width:7.9375;stroke-linecap:round;stroke-linejoin:round;stroke-miterlimit:4;stroke-dasharray:none;stroke-opacity:1"
       d="M 458.61302,-19.920333 C 430.0175,-4.646422 409.00509,21.76561 400.55042,53.062809 l -51.11006,30.665828 51.11057,30.666343 c 8.45572,31.30062 29.47185,57.71479 58.07191,72.98779 l 55.2819,-33.16903 c -38.92767,-2.3e-4 -70.48465,-31.55743 -70.48459,-70.485103 5.1e-4,-38.922827 31.55039,-70.477564 70.47322,-70.484069 z"
       sodipodi:nodetypes="ccccccccc" /><path
       id="path62"
       style="fill:url(#linearGradient63);stroke:#000000;stroke-width:7.9375;stroke-linecap:round;stroke-linejoin:round;stroke-miterlimit:4;stroke-dasharray:none;stroke-opacity:1"
       d="m 569.19697,-19.920333 -55.27983,33.164384 c 38.92303,0.0065 70.47299,31.561557 70.47322,70.484586 6e-5,38.927873 -31.55724,70.485163 -70.48511,70.485103 l 55.2819,33.16903 c 28.59995,-15.27288 49.61607,-41.68685 58.07191,-72.98727 L 678.37015,83.728637 627.30505,53.08968 C 618.84634,21.774213 597.81556,-4.649948 569.19697,-19.920333 Z"
       sodipodi:nodetypes="ccccccccc" /><circle
       style="fill:url(#linearGradient62);stroke:#000000;stroke-width:7.9375;stroke-linecap:round;stroke-linejoin:round;stroke-miterlimit:4;stroke-dasharray:none"
       id="circle62"
       cx="513.90527"
       cy="83.728638"
       r="46.990002" /><path
       id="path64"
       style="fill:url(#linearGradient67);stroke:#000000;stroke-width:7.9375;stroke-linecap:round;stroke-linejoin:round;stroke-miterlimit:4;stroke-dasharray:none;stroke-opacity:1"
       d="m 458.6032,-227.22344 c -28.59552,15.27391 -49.60793,41.68595 -58.0626,72.98315 l -51.11006,30.66582 51.11057,30.66635 c 8.45572,31.30062 29.47185,57.71479 58.07191,72.987787 l 55.2819,-33.169027 c -38.92767,-2.3e-4 -70.48465,-31.55743 -70.48459,-70.48511 5.1e-4,-38.92282 31.55039,-70.47756 70.47322,-70.48406 z"
       sodipodi:nodetypes="ccccccccc" /><path
       id="path65"
       style="fill:url(#linearGradient66);stroke:#000000;stroke-width:7.9375;stroke-linecap:round;stroke-linejoin:round;stroke-miterlimit:4;stroke-dasharray:none;stroke-opacity:1"
       d="m 569.18715,-227.22344 -55.27983,33.16439 c 38.92303,0.007 70.47299,31.56156 70.47322,70.48458 6e-5,38.92788 -31.55724,70.48517 -70.48511,70.48511 l 55.2819,33.169027 C 597.77728,-35.19321 618.7934,-61.60718 627.24924,-92.9076 l 51.11109,-30.66687 -51.0651,-30.63895 c -8.45871,-31.31547 -29.48949,-57.73963 -58.10808,-73.01002 z"
       sodipodi:nodetypes="ccccccccc" /><circle
       style="fill:url(#linearGradient65);stroke:#000000;stroke-width:7.9375;stroke-linecap:round;stroke-linejoin:round;stroke-miterlimit:4;stroke-dasharray:none"
       id="circle65"
       cx="513.89545"
       cy="-123.57447"
       r="46.990002" /><path
       id="path67"
       style="fill:#000000;stroke:#ffffff;stroke-width:7.9375;stroke-linecap:round;stroke-linejoin:round;stroke-miterlimit:4;stroke-dasharray:none;stroke-opacity:1"
       d="m 458.59338,-434.52654 c -28.59552,15.27391 -49.60793,41.68594 -58.0626,72.98314 l -51.11006,30.66583 51.11057,30.66634 c 8.45571,31.30062 29.47185,57.71479 58.07191,72.98779 l 55.2819,-33.16903 c -38.92767,-2.3e-4 -70.48465,-31.55743 -70.48459,-70.4851 5.1e-4,-38.92283 31.55039,-70.47757 70.47322,-70.48407 z"
       sodipodi:nodetypes="ccccccccc" /><path
       id="path68"
       style="fill:#000000;stroke:#ffffff;stroke-width:7.9375;stroke-linecap:round;stroke-linejoin:round;stroke-miterlimit:4;stroke-dasharray:none;stroke-opacity:1"
       d="m 569.17733,-434.52654 -55.27983,33.16438 c 38.92303,0.007 70.47299,31.56156 70.47322,70.48459 6e-5,38.92787 -31.55724,70.48516 -70.48511,70.4851 l 55.2819,33.16903 c 28.59995,-15.27288 49.61607,-41.68685 58.07191,-72.98727 l 51.11109,-30.66686 -51.0651,-30.63896 c -8.45871,-31.31547 -29.48949,-57.73963 -58.10808,-73.01001 z"
       sodipodi:nodetypes="ccccccccc" /><circle
       style="fill:#000000;stroke:#ffffff;stroke-width:7.9375;stroke-linecap:round;stroke-linejoin:round;stroke-miterlimit:4;stroke-dasharray:none"
       id="circle68"
       cx="513.88562"
       cy="-330.87756"
       r="46.990002" /></g></svg>
